# File created by Blade
# Date/Time:  Tue Jan 27 17:01:45 2015
#---------------------------------------------------------
:version 1.10
:name HOM
:units
  mass 1.0
  length 1.000000
  angle deg
:documentation
     Acclaim Skeleton File
:root
   axis xyz
   order TX TY TZ RX RY RZ
   position 0.000000 0.000000 0.000000
   orientation 0 0 0
:bonedata
   begin
      id 1
      name Spine_dum
      direction 0.000000 1.000000 0.000000
      length 7.539951
      axis 0.0 0.0 0.0 xyz
   end
   begin
      id 2
      name LeftUpLeg_dum
      direction 1.000000 0.000000 0.000000
      length 3.345476
      axis 0.0 0.0 0.0 xyz
   end
   begin
      id 3
      name RightUpLeg_dum
      direction -1.000000 0.000000 0.000000
      length 3.345476
      axis 0.0 0.0 0.0 xyz
   end
   begin
      id 4
      name Spine
      direction 0.000000 1.000000 0.000000
      length 0.000000
      axis 0.0 0.0 0.0 xyz
      dof rx ry rz
   end
   begin
      id 5
      name Spine_dum1
      direction 0.000000 1.000000 0.000000
      length 15.093809
      axis 0.0 0.0 0.0 xyz
   end
   begin
      id 6
      name Spine_dum2
      direction 0.000000 1.000000 0.000000
      length 9.738928
      axis 0.0 0.0 0.0 xyz
   end
   begin
      id 7
      name Spine_dum3
      direction 0.000000 1.000000 0.000000
      length 9.738928
      axis 0.0 0.0 0.0 xyz
   end
   begin
      id 8
      name Head
      direction 0.000000 1.000000 0.000000
      length 4.527550
      axis 0.0 0.0 0.0 xyz
      dof rx ry rz
   end
   begin
      id 9
      name LeftShoulder
      direction 1.000000 0.000000 0.000000
      length 7.084015
      axis 0.0 0.0 -90.0 xyz
      dof rx ry rz
   end
   begin
      id 10
      name LeftArm
      direction 1.000000 0.000000 0.000000
      length 10.259319
      axis 0.0 0.0 -90.0 xyz
      dof rx ry rz
   end
   begin
      id 11
      name LeftForeArm
      direction 1.000000 0.000000 0.000000
      length 9.896984
      axis 0.0 0.0 -90.0 xyz
      dof ry rz rx
   end
   begin
      id 12
      name LeftHand
      direction 0.000000 0.000000 0.000000
      length 0.000000
      axis 0.0 0.0 -90.0 xyz
      dof rx ry rz
   end
   begin
      id 13
      name LeftHand_dum1
      direction 0.000000 0.000000 0.000000
      length 0.000000
      axis 0.0 0.0 -90.0 xyz
   end
   begin
      id 14
      name LeftHand_dum2
      direction 1.000000 0.000000 0.000000
      length 3.937000
      axis 0.0 0.0 -90.0 xyz
   end
   begin
      id 15
      name LeftHandThumb1
      direction 0.000000 0.000000 1.000000
      length 3.937000
      axis 0.0 0.0 -90.0 xyz
      dof rx rz ry
   end
   begin
      id 16
      name RightShoulder
      direction -1.000000 0.000000 0.000000
      length 7.084015
      axis 0.0 0.0 90.0 xyz
      dof rx ry rz
   end
   begin
      id 17
      name RightArm
      direction -1.000000 0.000000 0.000000
      length 10.259319
      axis 0.0 0.0 90.0 xyz
      dof rx ry rz
   end
   begin
      id 18
      name RightForeArm
      direction -1.000000 0.000000 0.000000
      length 9.896984
      axis 0.0 0.0 90.0 xyz
      dof ry rz rx
   end
   begin
      id 19
      name RightHand
      direction 0.000000 0.000000 0.000000
      length 0.000000
      axis 0.0 0.0 90.0 xyz
      dof rx ry rz
   end
   begin
      id 20
      name RightHand_dum1
      direction 0.000000 0.000000 0.000000
      length 0.000000
      axis 0.0 0.0 90.0 xyz
   end
   begin
      id 21
      name RightHand_dum2
      direction -1.000000 0.000000 0.000000
      length 3.937000
      axis 0.0 0.0 90.0 xyz
   end
   begin
      id 22
      name RightHandThumb1
      direction 0.000000 0.000000 1.000000
      length 3.937000
      axis 0.0 0.0 90.0 xyz
      dof rx rz ry
   end
   begin
      id 23
      name LeftUpLeg
      direction 0.000000 -1.000000 0.000000
      length 19.114733
      axis 0.0 0.0 0.0 xyz
      dof rx ry rz
   end
   begin
      id 24
      name LeftLeg
      direction 0.000000 -1.000000 0.000000
      length 16.045604
      axis 0.0 0.0 0.0 xyz
      dof rx ry rz
   end
   begin
      id 25
      name LeftFoot
      direction 0.000000 -0.258819 0.965926
      length 5.543155
      axis 15.0 0.0 0.0 xyz
      dof rx ry rz
   end
   begin
      id 26
      name LeftToeBase
      direction 0.000000 0.000000 1.000000
      length 2.952750
      axis 0.0 0.0 0.0 xyz
      dof rx ry rz
   end
   begin
      id 27
      name RightUpLeg
      direction 0.000000 -1.000000 0.000000
      length 19.114733
      axis 0.0 0.0 0.0 xyz
      dof rx ry rz
   end
   begin
      id 28
      name RightLeg
      direction 0.000000 -1.000000 0.000000
      length 16.045604
      axis 0.0 0.0 0.0 xyz
      dof rx ry rz
   end
   begin
      id 29
      name RightFoot
      direction 0.000000 -0.258819 0.965926
      length 5.543155
      axis 15.0 0.0 0.0 xyz
      dof rx ry rz
   end
   begin
      id 30
      name RightToeBase
      direction 0.000000 0.000000 1.000000
      length 2.952750
      axis 0.0 0.0 0.0 xyz
      dof rx ry rz
   end
:hierarchy
   begin
      root Spine_dum LeftUpLeg_dum RightUpLeg_dum
      Spine_dum Spine
      LeftUpLeg_dum LeftUpLeg
      RightUpLeg_dum RightUpLeg
      Spine Spine_dum1 Spine_dum2 Spine_dum3
      Spine_dum1 Head
      Spine_dum2 LeftShoulder
      Spine_dum3 RightShoulder
      LeftShoulder LeftArm
      LeftArm LeftForeArm
      LeftForeArm LeftHand
      LeftHand LeftHand_dum1 LeftHand_dum2
      LeftHand_dum1 LeftHandThumb1
      RightShoulder RightArm
      RightArm RightForeArm
      RightForeArm RightHand
      RightHand RightHand_dum1 RightHand_dum2
      RightHand_dum1 RightHandThumb1
      LeftUpLeg LeftLeg
      LeftLeg LeftFoot
      LeftFoot LeftToeBase
      RightUpLeg RightLeg
      RightLeg RightFoot
      RightFoot RightToeBase
   end

# File created by Blade
# Date/Time:  Tue Jan 27 17:01:38 2015
# Frame Rate: 120.000 fps
#------------------------------------------------------
:FULLY-SPECIFIED
:DEGREES
1
root -0.902889 36.926094 5.478030 6.551871 2.054207 -0.419186
Spine -5.317087 6.091415 -0.110999
Head 0.446668 0.057441 0.392291
LeftShoulder -8.067206 -13.713349 19.034521
LeftArm 1.721255 -22.215095 -18.615575
LeftForeArm 24.631194 0.000000 5.356518
LeftHand -18.118439 -0.000000 -15.693657
LeftHandThumb1 -26.253704 0.000000 33.147579
RightShoulder -7.496602 -7.518674 -21.306381
RightArm 1.070164 34.576046 23.306866
RightForeArm -177.159608 -0.000000 12.527889
RightHand 2.891897 -0.000000 -3.010313
RightHandThumb1 -24.326973 -0.000000 -32.862282
LeftUpLeg -3.948674 11.235023 4.548481
LeftLeg 7.546585 -0.000000 -0.000000
LeftFoot -16.272464 3.547252 -20.728504
LeftToeBase 14.726300 -0.000000 -0.000000
RightUpLeg -5.430685 -9.299467 -1.295065
RightLeg 10.446160 -0.000000 -0.000000
RightFoot -16.571802 -5.724725 14.583733
RightToeBase 10.960393 -0.000000 -0.000000
2
root -0.899444 36.925781 5.480674 6.554102 2.039517 -0.419505
Spine -5.325077 6.087026 -0.103299
Head 0.439257 0.077499 0.365181
LeftShoulder -8.078204 -13.718925 19.022115
LeftArm 1.706806 -22.110835 -18.596350
LeftForeArm 24.477290 -0.000000 5.379284
LeftHand -18.164266 -0.000000 -15.601943
LeftHandThumb1 -26.253704 0.000000 33.147579
RightShoulder -7.480570 -7.518129 -21.323023
RightArm 1.074322 34.580958 23.314218
RightForeArm -177.120964 -0.000000 12.544620
RightHand 2.897736 0.000000 -3.009661
RightHandThumb1 -24.326973 -0.000000 -32.862282
LeftUpLeg -3.942619 11.250226 4.541162
LeftLeg 7.543419 -0.000000 -0.000000
LeftFoot -16.273120 3.555144 -20.711535
LeftToeBase 14.703661 -0.000000 -0.000000
RightUpLeg -5.438028 -9.282009 -1.300487
RightLeg 10.465860 -0.000000 -0.000000
RightFoot -16.554974 -5.762535 14.554758
RightToeBase 10.839559 -0.000000 -0.000000
3
root -0.896804 36.925593 5.483226 6.558913 2.032134 -0.419031
Spine -5.340004 6.120878 -0.116465
Head 0.442828 0.050465 0.380868
LeftShoulder -8.062129 -13.723320 19.031866
LeftArm 1.722429 -22.115995 -18.613314
LeftForeArm 24.501426 -0.000000 5.393394
LeftHand -18.172036 -0.000000 -15.601125
LeftHandThumb1 -26.253704 0.000000 33.147579
RightShoulder -7.503087 -7.514478 -21.315654
RightArm 1.062113 34.570420 23.304653
RightForeArm -177.143966 -0.000000 12.555037
RightHand 2.887273 -0.000000 -2.982293
RightHandThumb1 -24.326973 -0.000000 -32.862282
LeftUpLeg -3.941214 11.245997 4.532906
LeftLeg 7.533225 -0.000000 -0.000000
LeftFoot -16.277854 3.592962 -20.680438
LeftToeBase 14.675163 -0.000000 -0.000000
RightUpLeg -5.447062 -9.277214 -1.304919
RightLeg 10.482490 -0.000000 -0.000000
RightFoot -16.571264 -5.756225 14.567990
RightToeBase 10.881693 -0.000000 -0.000000
4
root -0.894208 36.925539 5.486281 6.559216 2.031667 -0.420376
Spine -5.353051 6.123206 -0.117158
Head 0.453247 0.054115 0.376319
LeftShoulder -8.058595 -13.725888 19.034116
LeftArm 1.738950 -22.174785 -18.621703
LeftForeArm 24.537635 -0.000000 5.379331
LeftHand -18.152946 -0.000000 -15.491839
LeftHandThumb1 -26.253704 0.000000 33.147579
RightShoulder -7.503600 -7.526585 -21.315961
RightArm 1.074137 34.581495 23.309022
RightForeArm -177.134700 -0.000000 12.555152
RightHand 2.891758 -0.000000 -2.972435
RightHandThumb1 -24.326973 -0.000000 -32.862282
LeftUpLeg -3.940109 11.258942 4.529738
LeftLeg 7.541299 -0.000000 -0.000000
LeftFoot -16.288338 3.591173 -20.670236
LeftToeBase 14.718947 -0.000000 -0.000000
RightUpLeg -5.440852 -9.263554 -1.311758
RightLeg 10.481947 -0.000000 -0.000000
RightFoot -16.571841 -5.757633 14.578754
RightToeBase 10.877330 -0.000000 -0.000000
5
root -0.891656 36.924880 5.489303 6.564589 2.028586 -0.418370
Spine -5.363809 6.117152 -0.116880
Head 0.442288 0.067723 0.354886
LeftShoulder -8.031806 -13.740369 19.012927
LeftArm 1.672583 -22.152854 -18.576184
LeftForeArm 24.548934 -0.000000 5.430844
LeftHand -18.159113 -0.000000 -15.480770
LeftHandThumb1 -26.253704 0.000000 33.147579
RightShoulder -7.510872 -7.524910 -21.324299
RightArm 1.104865 34.587142 23.328517
RightForeArm -177.138904 -0.000000 12.558654
RightHand 2.959558 -0.000000 -2.989137
RightHandThumb1 -24.326973 -0.000000 -32.862282
LeftUpLeg -3.939438 11.256964 4.528524
LeftLeg 7.549782 -0.000000 -0.000000
LeftFoot -16.296648 3.562908 -20.685510
LeftToeBase 14.710172 -0.000000 -0.000000
RightUpLeg -5.444552 -9.266641 -1.317568
RightLeg 10.487931 -0.000000 -0.000000
RightFoot -16.579583 -5.746582 14.603108
RightToeBase 10.901445 -0.000000 -0.000000
